<?xml version="1.0" standalone="no"?>
<!DOCTYPE svg PUBLIC "-//W3C//DTD SVG 20010904//EN"
 "http://www.w3.org/TR/2001/REC-SVG-20010904/DTD/svg10.dtd">
<svg version="1.0" xmlns="http://www.w3.org/2000/svg"
 width="505.000000pt" height="494.000000pt" viewBox="0 0 505.000000 494.000000"
 preserveAspectRatio="xMidYMid meet">

<g transform="translate(0.000000,494.000000) scale(0.100000,-0.100000)"
fill="#000000" stroke="none">
<path d="M2485 4860 c-4 -6 28 -11 87 -11 155 -3 238 -6 302 -14 33 -3 58 -4
55 -1 -17 18 -434 42 -444 26z"/>
<path d="M2330 4853 c-25 -3 -48 -8 -53 -12 -6 -6 55 -2 158 12 39 5 -44 5
-105 0z"/>
<path d="M2228 4833 c6 -2 18 -2 25 0 6 3 1 5 -13 5 -14 0 -19 -2 -12 -5z"/>
<path d="M2946 4829 c2 -4 -2 -10 -8 -13 -7 -2 4 -3 24 0 21 3 43 2 50 -2 15
-9 58 -12 58 -3 0 3 -29 10 -64 15 -36 6 -63 7 -60 3z"/>
<path d="M2118 4813 c7 -3 16 -2 19 1 4 3 -2 6 -13 5 -11 0 -14 -3 -6 -6z"/>
<path d="M3080 4800 c0 -5 7 -7 15 -4 8 4 15 8 15 10 0 2 -7 4 -15 4 -8 0 -15
-4 -15 -10z"/>
<path d="M3138 4793 c7 -3 16 -2 19 1 4 3 -2 6 -13 5 -11 0 -14 -3 -6 -6z"/>
<path d="M1855 4750 c-13 -6 -15 -9 -5 -9 8 0 22 4 30 9 18 12 2 12 -25 0z"/>
<path d="M3288 4753 c7 -3 16 -2 19 1 4 3 -2 6 -13 5 -11 0 -14 -3 -6 -6z"/>
<path d="M1690 4690 c-8 -5 -10 -10 -5 -10 6 0 17 5 25 10 8 5 11 10 5 10 -5
0 -17 -5 -25 -10z"/>
<path d="M2645 4611 c-20 -5 13 -10 95 -14 69 -4 141 -10 160 -12 24 -4 19 -1
-15 9 -60 16 -199 26 -240 17z"/>
<path d="M2358 4603 c6 -2 18 -2 25 0 6 3 1 5 -13 5 -14 0 -19 -2 -12 -5z"/>
<path d="M2408 4603 c7 -3 16 -2 19 1 4 3 -2 6 -13 5 -11 0 -14 -3 -6 -6z"/>
<path d="M2468 4603 c7 -3 16 -2 19 1 4 3 -2 6 -13 5 -11 0 -14 -3 -6 -6z"/>
<path d="M2293 4593 c9 -2 25 -2 35 0 9 3 1 5 -18 5 -19 0 -27 -2 -17 -5z"/>
<path d="M2173 4581 c-24 -4 -46 -10 -49 -14 -7 -6 47 0 106 13 45 10 3 10
-57 1z"/>
<path d="M2948 4573 c6 -2 18 -2 25 0 6 3 1 5 -13 5 -14 0 -19 -2 -12 -5z"/>
<path d="M2998 4563 c7 -3 16 -2 19 1 4 3 -2 6 -13 5 -11 0 -14 -3 -6 -6z"/>
<path d="M2048 4553 c7 -3 16 -2 19 1 4 3 -2 6 -13 5 -11 0 -14 -3 -6 -6z"/>
<path d="M3058 4553 c7 -3 16 -2 19 1 4 3 -2 6 -13 5 -11 0 -14 -3 -6 -6z"/>
<path d="M3205 4515 c22 -8 45 -14 50 -14 18 1 -49 28 -70 28 -11 0 -2 -6 20
-14z"/>
<path d="M1834 4503 c4 -8 1 -13 -8 -13 -9 0 -16 -3 -16 -7 0 -5 -21 -17 -46
-27 -39 -16 -48 -17 -56 -5 -8 11 -9 10 -4 -3 3 -12 0 -18 -9 -18 -18 0 -93
-38 -101 -52 -3 -5 11 -1 32 10 22 11 87 39 147 62 59 23 107 44 107 47 0 3
-6 3 -14 0 -7 -3 -19 0 -26 6 -10 9 -11 9 -6 0z"/>
<path d="M1290 4490 c-9 -6 -10 -10 -3 -10 6 0 15 5 18 10 8 12 4 12 -15 0z"/>
<path d="M3325 4475 c94 -35 103 -37 52 -11 -27 13 -43 26 -37 28 6 2 -8 4
-32 4 l-42 2 59 -23z"/>
<path d="M3430 4436 c0 -3 39 -25 88 -49 158 -81 206 -108 291 -170 46 -33 90
-60 97 -60 7 0 11 -3 9 -7 -8 -13 53 -63 67 -54 7 4 10 4 6 -1 -4 -4 45 -63
110 -129 64 -67 130 -138 146 -158 15 -21 31 -36 35 -33 4 2 8 -1 8 -8 1 -7
35 -64 77 -127 203 -305 313 -634 336 -1008 26 -428 -72 -839 -289 -1204 -203
-341 -502 -637 -823 -816 -79 -44 -246 -114 -358 -149 -114 -37 -258 -69 -266
-60 -10 9 15 158 30 182 7 11 20 43 30 70 10 28 24 55 30 60 7 6 20 21 29 34
96 140 266 290 507 447 476 310 706 603 801 1024 21 94 24 129 24 325 0 238
-6 284 -61 520 -40 170 -63 217 -119 235 -67 22 -120 -2 -156 -70 -10 -19 -13
-99 -14 -335 -1 -283 -3 -318 -23 -404 -40 -174 -117 -302 -269 -454 -54 -54
-134 -125 -178 -158 -44 -33 -111 -84 -150 -113 -386 -289 -679 -782 -764
-1285 -11 -65 -25 -117 -33 -122 -16 -11 -139 -11 -154 -1 -7 4 -15 36 -19 71
-9 78 -80 341 -129 476 -80 219 -216 447 -365 608 -67 72 -247 225 -386 327
-122 90 -299 264 -348 342 -144 227 -174 366 -164 753 5 212 -1 306 -22 313
-6 2 -9 7 -6 12 9 14 -34 43 -72 47 -42 5 -91 -22 -125 -67 -40 -54 -97 -340
-118 -587 -24 -278 28 -559 147 -798 71 -140 219 -319 366 -442 85 -71 318
-232 383 -266 58 -30 228 -163 305 -238 87 -85 164 -196 204 -296 31 -77 58
-194 47 -205 -12 -12 -198 31 -314 73 -412 149 -740 394 -1009 754 -201 268
-330 559 -390 880 -26 140 -37 464 -20 615 28 255 100 503 201 699 68 131 214
351 282 426 26 29 44 55 40 59 -4 4 -2 6 4 4 14 -4 75 67 66 77 -4 5 -2 5 4 2
11 -6 81 59 77 71 -2 4 1 7 6 7 9 0 190 131 206 150 6 6 61 40 123 74 99 55
128 81 89 81 -7 0 -6 -4 3 -10 12 -7 8 -11 -17 -16 -18 -4 -33 -10 -33 -13 0
-10 -73 -45 -87 -42 -7 1 -13 -3 -13 -9 0 -7 -8 -9 -21 -5 -14 5 -19 3 -15 -3
3 -6 -7 -20 -23 -31 -29 -21 -29 -21 -24 -1 3 11 9 17 14 14 5 -3 15 -2 21 2
9 6 5 10 -12 14 -14 4 -24 12 -22 18 4 19 -12 14 -26 -8 -7 -11 -22 -20 -35
-20 -16 0 -18 -3 -9 -9 11 -6 10 -10 -5 -16 -10 -5 -21 -8 -24 -7 -3 0 -6 -5
-6 -13 0 -7 6 -11 14 -8 9 3 11 0 8 -10 -4 -8 -13 -14 -22 -13 -9 0 -18 -5
-21 -13 -3 -8 0 -11 7 -7 7 4 9 1 5 -8 -3 -8 -12 -12 -19 -10 -7 3 -25 -7 -40
-23 -22 -22 -26 -24 -21 -8 6 17 5 18 -6 7 -11 -11 -10 -16 5 -26 17 -14 25
-32 8 -21 -5 3 -12 1 -16 -5 -3 -5 -24 -10 -46 -10 -25 0 -38 -4 -34 -10 4 -6
12 -7 18 -4 9 5 9 4 0 -6 -6 -7 -9 -19 -6 -28 5 -10 2 -13 -6 -8 -7 5 -10 14
-7 22 3 8 1 14 -3 14 -5 0 -12 -8 -16 -17 -6 -16 -8 -16 -25 5 -18 21 -37 31
-25 13 3 -5 1 -12 -5 -16 -5 -3 -10 2 -10 11 0 15 -3 15 -24 -5 -27 -25 -136
-43 -136 -22 0 6 -8 11 -17 12 -15 0 -15 2 -3 7 8 4 16 14 18 22 1 8 -18 -7
-43 -33 -25 -27 -42 -54 -38 -60 3 -5 1 -7 -4 -4 -6 4 -33 -24 -60 -61 -295
-398 -437 -784 -474 -1292 -35 -488 111 -1000 414 -1455 276 -413 666 -725
1126 -900 319 -121 742 -176 1086 -141 704 72 1290 401 1686 947 256 354 411
730 465 1129 29 221 16 543 -32 780 -22 105 -78 287 -125 404 -61 150 -142
300 -165 304 -37 6 -63 24 -57 40 4 10 2 13 -5 8 -6 -3 -13 -2 -16 3 -3 5 1
11 9 15 8 3 15 1 15 -4 0 -5 9 -12 20 -15 11 -3 20 -10 20 -15 0 -5 -8 -7 -17
-4 -15 5 -16 4 -3 -5 31 -22 42 -13 23 19 -24 42 -68 93 -54 63 13 -25 -5 -45
-20 -22 -7 11 -9 10 -9 -3 0 -11 -7 -18 -17 -17 -11 0 -13 3 -5 6 15 6 16 39
2 48 -6 4 -18 1 -27 -7 -15 -12 -16 -10 -10 14 6 21 3 28 -13 33 -11 3 -20 12
-20 19 0 7 -10 18 -23 25 -12 6 -31 25 -42 41 -11 17 -29 31 -40 31 -11 1 -27
3 -35 3 -8 1 -14 7 -13 14 2 7 -4 12 -12 12 -9 0 -21 11 -27 25 -6 14 -18 25
-26 25 -8 0 -12 6 -9 15 4 8 2 17 -4 21 -6 3 -8 13 -5 21 3 8 2 11 -3 8 -5 -3
-16 4 -24 15 -9 14 -26 21 -51 22 -20 1 -36 5 -36 10 0 4 -4 8 -10 8 -5 0 -10
-8 -10 -17 0 -18 -10 -12 -13 9 -5 31 -30 78 -42 78 -8 0 -43 15 -78 34 -35
18 -76 36 -91 40 -24 6 -25 4 -22 -24 2 -16 -1 -27 -6 -24 -5 3 -7 12 -5 18 3
8 -5 13 -24 13 -16 0 -34 4 -39 9 -6 6 -2 10 10 10 11 0 20 -4 20 -8 0 -4 5
-8 11 -8 6 0 9 6 6 14 -3 8 -1 17 6 19 7 2 5 3 -4 2 -17 -3 -49 27 -49 45 0 5
-12 13 -27 16 -16 4 -34 11 -40 17 -12 9 -14 6 -13 -20 1 -5 11 -7 23 -6 17 1
18 0 4 -4 -13 -3 -17 -11 -14 -24 3 -10 1 -19 -4 -19 -5 0 -10 10 -10 23 -1
16 -2 18 -6 5 -2 -10 -9 -18 -14 -18 -6 0 -7 5 -3 12 5 8 2 9 -9 5 -10 -3 -17
-2 -17 3 0 5 10 10 23 12 l22 3 -23 7 c-14 4 -28 0 -39 -10 -16 -16 -16 -16
-10 1 3 9 3 17 -2 17 -5 0 -12 10 -16 23 l-8 22 -4 -22 c-5 -27 -18 -30 -27
-7 -4 9 -9 14 -13 11 -9 -9 -44 13 -38 24 4 5 2 9 -4 9 -5 0 -13 -5 -16 -10
-4 -7 -13 -7 -26 0 -10 6 -19 9 -19 6z m-2108 -168 c-7 -7 -12 -20 -12 -31 0
-16 -2 -17 -15 -3 -16 16 -20 30 -6 22 5 -3 11 1 15 9 3 8 11 15 18 15 9 0 9
-3 0 -12z m2581 -68 c3 -11 0 -23 -5 -27 -7 -3 -8 -1 -4 5 4 7 3 12 -3 12 -6
0 -8 7 -5 15 8 20 11 19 17 -5z m-2633 2 c0 -12 -39 -56 -45 -50 -4 4 35 58
42 58 2 0 3 -4 3 -8z m-90 -87 c-16 -19 -31 -19 -24 0 4 8 10 12 15 9 5 -3 9
0 9 7 0 7 3 9 6 6 4 -4 1 -13 -6 -22z m2840 -25 c0 -5 -4 -10 -10 -10 -5 0
-10 5 -10 10 0 6 5 10 10 10 6 0 10 -4 10 -10z m-2923 -43 c0 -8 -6 -14 -13
-14 -7 0 -10 6 -7 14 3 7 8 13 12 13 4 0 8 -6 8 -13z m2978 4 c-9 -8 -36 -10
-30 -2 2 4 11 8 20 8 8 0 13 -3 10 -6z m-3073 -55 c3 -28 1 -33 -9 -24 -14 12
-18 72 -4 64 5 -3 11 -21 13 -40z m-198 -9 c-9 -5 -21 -4 -30 3 -7 7 -14 9
-14 6 0 -4 -5 -4 -10 -1 -8 5 -7 11 1 21 10 12 16 11 40 -3 24 -14 26 -19 13
-26z m173 -32 c0 -8 -4 -12 -9 -9 -5 3 -6 10 -3 15 9 13 12 11 12 -6z m-260
-19 c0 -8 -6 -12 -15 -9 -11 5 -11 7 0 14 7 5 13 9 14 9 0 0 1 -6 1 -14z m-2
-34 c-3 -3 -11 0 -18 7 -9 10 -8 11 6 5 10 -3 15 -9 12 -12z m199 -30 c3 -5
-1 -9 -9 -9 -8 0 -12 4 -9 9 3 4 7 8 9 8 2 0 6 -4 9 -8z m3680 -200 c2 -4 -4
-8 -14 -8 -10 0 -16 4 -14 8 3 4 9 8 14 8 5 0 11 -4 14 -8z m43 -8 c-3 -3 -12
-4 -19 -1 -8 3 -5 6 6 6 11 1 17 -2 13 -5z m-3672 -384 c-3 -5 -12 -10 -18
-10 -7 0 -6 4 3 10 19 12 23 12 15 0z m71 -19 c9 -12 14 -25 11 -27 -7 -8 -42
16 -56 37 -9 16 -8 18 9 16 11 -2 28 -13 36 -26z"/>
<path d="M3637 4406 c-3 -8 -2 -18 4 -22 16 -9 22 2 11 21 -8 15 -10 16 -15 1z"/>
<path d="M939 4223 l-24 -28 28 24 c25 23 32 31 24 31 -2 0 -14 -12 -28 -27z"/>
<path d="M2173 4233 c9 -2 25 -2 35 0 9 3 1 5 -18 5 -19 0 -27 -2 -17 -5z"/>
<path d="M2098 4223 c12 -2 30 -2 40 0 9 3 -1 5 -23 4 -22 0 -30 -2 -17 -4z"/>
<path d="M2248 4223 c6 -2 18 -2 25 0 6 3 1 5 -13 5 -14 0 -19 -2 -12 -5z"/>
<path d="M2875 4214 c-22 -7 -29 -11 -15 -8 14 3 72 9 130 13 l105 8 -90 1
c-54 0 -106 -5 -130 -14z"/>
<path d="M1964 4184 c-18 -14 -18 -14 6 -3 31 14 36 19 24 19 -6 0 -19 -7 -30
-16z"/>
<path d="M2360 4197 c0 -2 19 -17 43 -32 23 -16 37 -22 30 -14 -12 15 -73 53
-73 46z"/>
<path d="M2730 4156 c-67 -39 -96 -66 -125 -116 -5 -8 7 -3 26 12 18 15 33 31
32 36 -2 10 59 53 132 91 22 12 33 21 25 21 -9 0 -49 -20 -90 -44z"/>
<path d="M3215 4175 c11 -9 29 -21 40 -26 l20 -10 -20 16 c-11 9 -29 21 -40
26 l-20 10 20 -16z"/>
<path d="M1858 4115 c-31 -24 -69 -65 -83 -90 -25 -41 -79 -185 -73 -190 10
-8 189 -11 194 -3 4 6 -2 8 -14 4 -11 -4 -23 -3 -26 3 -3 5 -16 7 -29 5 l-22
-5 23 10 c12 6 22 15 22 20 0 5 -10 7 -22 4 -19 -4 -20 -3 -8 6 12 9 11 11 -7
11 -13 0 -22 3 -22 8 3 20 -2 32 -15 32 -8 0 -17 -6 -19 -12 -3 -7 -4 -2 -3
12 4 41 27 91 39 83 5 -3 7 -1 4 4 -4 6 22 40 58 77 35 36 64 66 62 66 -1 0
-28 -20 -59 -45z"/>
<path d="M851 4137 c-6 -8 -8 -17 -4 -20 3 -4 -1 -7 -9 -7 -9 0 -21 -7 -28
-16 -11 -12 -11 -15 1 -12 15 3 44 28 44 37 0 3 4 12 8 19 11 16 2 15 -12 -1z"/>
<path d="M2450 4139 c0 -3 21 -25 48 -49 26 -24 40 -34 31 -20 -14 22 -79 78
-79 69z"/>
<path d="M3310 4101 c0 -6 4 -13 10 -16 6 -3 7 1 4 9 -7 18 -14 21 -14 7z"/>
<path d="M4360 4066 c0 -2 8 -10 18 -17 15 -13 16 -12 3 4 -13 16 -21 21 -21
13z"/>
<path d="M3386 3997 c3 -10 9 -15 12 -12 3 3 0 11 -7 18 -10 9 -11 8 -5 -6z"/>
<path d="M1780 3990 c0 -5 5 -10 11 -10 5 0 7 5 4 10 -3 6 -8 10 -11 10 -2 0
-4 -4 -4 -10z"/>
<path d="M4420 3996 c0 -2 8 -10 18 -17 15 -13 16 -12 3 4 -13 16 -21 21 -21
13z"/>
<path d="M4409 3960 c-5 -42 -2 -53 14 -56 15 -2 15 0 3 18 -8 11 -12 27 -9
34 3 8 2 14 -1 14 -3 0 -6 -4 -7 -10z"/>
<path d="M4453 3947 c12 -10 14 -17 8 -22 -6 -3 -11 -12 -10 -18 0 -9 2 -9 6
1 2 6 11 12 19 12 20 0 9 17 -19 30 -20 10 -21 10 -4 -3z"/>
<path d="M3435 3878 c7 -34 5 -37 -22 -41 -24 -3 -23 -4 9 -6 l36 -1 -10 38
c-14 50 -21 56 -13 10z"/>
<path d="M4489 3910 c-5 -28 -7 -52 -3 -42 8 17 21 15 21 -3 0 -8 -7 -15 -14
-15 -8 0 -11 -5 -8 -10 4 -6 11 -8 16 -5 13 9 11 -9 -3 -25 -7 -8 -1 -4 15 9
22 20 27 22 27 8 0 -9 5 -17 10 -17 7 0 7 6 0 20 -7 13 -16 17 -28 13 -14 -6
-15 -4 -5 8 9 11 8 20 -7 39 -11 14 -20 23 -21 20z"/>
<path d="M1857 3889 c7 -7 15 -10 18 -7 3 3 -2 9 -12 12 -14 6 -15 5 -6 -5z"/>
<path d="M3212 3879 c2 -9 -8 -12 -37 -11 -38 2 -39 2 -16 -11 13 -8 19 -17
14 -20 -16 -10 -127 1 -131 13 -3 7 -11 5 -23 -6 -16 -14 -24 -15 -44 -6 -15
7 -34 8 -47 3 -13 -4 -29 -6 -35 -4 -7 3 -13 -3 -13 -13 0 -15 -8 -16 -60 -11
-38 3 -94 -2 -157 -14 -111 -21 -143 -23 -143 -9 0 6 -18 10 -40 10 -22 0 -40
-4 -40 -10 0 -5 6 -10 13 -11 6 0 -5 -7 -27 -15 -39 -14 -70 -9 -45 7 12 8 11
11 -1 19 -20 13 -60 13 -60 -1 0 -6 -9 -9 -20 -6 -10 3 -25 -1 -31 -9 -7 -8
-20 -12 -30 -9 -11 4 -19 2 -19 -5 0 -6 -6 -10 -12 -7 -7 2 -12 10 -10 17 2 9
-7 11 -30 7 -24 -3 -39 1 -58 17 -15 13 -19 15 -11 4 16 -22 -1 -24 -19 -3 -7
8 -24 15 -39 14 -14 0 -53 2 -86 4 -53 5 -49 3 33 -14 106 -21 206 -62 301
-123 88 -57 214 -193 257 -278 19 -38 38 -68 43 -68 8 0 45 76 53 109 2 7 35
47 73 89 39 41 69 79 67 84 -1 5 2 7 7 4 5 -3 25 12 45 34 20 22 40 40 45 40
5 0 28 11 52 24 86 48 228 96 322 107 110 15 133 23 97 38 -20 8 -21 10 -6 10
11 1 17 4 13 7 -3 4 -24 -1 -47 -10 -49 -19 -64 -20 -31 -2 l24 13 -29 0 c-16
0 -37 3 -47 7 -13 6 -17 5 -15 -5z m-152 -74 c0 -9 -9 -15 -22 -14 -18 1 -19
2 -5 6 9 2 15 9 12 14 -4 5 -1 9 4 9 6 0 11 -7 11 -15z m-60 -15 c8 -5 11 -10
5 -10 -5 0 -17 5 -25 10 -8 5 -10 10 -5 10 6 0 17 -5 25 -10z"/>
<path d="M3105 3860 c3 -5 8 -10 11 -10 2 0 4 5 4 10 0 6 -5 10 -11 10 -5 0
-7 -4 -4 -10z"/>
<path d="M1868 3853 c7 -3 16 -2 19 1 4 3 -2 6 -13 5 -11 0 -14 -3 -6 -6z"/>
<path d="M1797 3693 c-7 -11 19 -156 39 -217 33 -103 76 -169 179 -272 89 -90
109 -104 179 -133 43 -18 126 -45 185 -60 58 -16 114 -32 124 -36 21 -9 22 7
3 130 -35 227 -184 418 -400 514 -87 38 -300 89 -309 74z m407 -161 c3 -5 -1
-9 -9 -9 -8 0 -12 4 -9 9 3 4 7 8 9 8 2 0 6 -4 9 -8z m46 -17 c11 -13 10 -14
-5 -9 -14 6 -16 4 -10 -7 6 -11 5 -11 -5 -2 -7 6 -9 16 -6 22 9 14 11 14 26
-4z m-89 -43 c91 -59 123 -126 75 -158 -23 -14 -28 -14 -59 0 -50 25 -125 106
-129 141 -2 18 2 30 9 30 6 0 15 3 19 8 14 13 40 7 85 -21z m134 -2 c10 -11
16 -20 13 -20 -3 0 -13 9 -23 20 -10 11 -16 20 -13 20 3 0 13 -9 23 -20z"/>
<path d="M3272 3685 c-167 -30 -303 -94 -400 -188 -129 -124 -222 -320 -222
-467 0 -57 -3 -56 95 -35 183 39 292 92 397 193 63 60 156 184 162 214 1 7 10
30 19 52 9 21 14 42 11 47 -3 5 0 9 6 9 23 0 56 155 38 178 -12 14 -11 14
-106 -3z m-216 -97 c4 -7 3 -8 -4 -4 -7 4 -12 0 -12 -10 0 -10 -3 -15 -6 -11
-7 6 2 37 10 37 3 0 8 -5 12 -12z m292 -44 c-3 -14 -5 -12 -10 9 -3 19 -2 25
4 19 6 -6 8 -18 6 -28z m-348 22 c0 -3 -4 -8 -10 -11 -5 -3 -10 -1 -10 4 0 6
5 11 10 11 6 0 10 -2 10 -4z m110 -71 c24 -29 14 -65 -31 -112 -94 -95 -186
-137 -209 -94 -16 30 -5 57 49 114 82 89 162 127 191 92z"/>
<path d="M2994 2760 c-107 -22 -237 -116 -277 -203 -27 -57 -57 -168 -57 -210
0 -27 0 -27 74 -27 95 0 183 30 265 90 48 35 119 136 136 194 29 96 17 139
-43 156 -41 11 -41 11 -98 0z"/>
<path d="M2056 2747 c-38 -28 -39 -154 -1 -228 49 -93 201 -191 326 -208 93
-13 119 -6 119 30 0 46 -58 211 -93 264 -18 27 -51 63 -74 81 -78 60 -232 94
-277 61z"/>
<path d="M1442 2718 c-7 -7 -12 -9 -12 -5 0 4 -9 3 -20 -3 -11 -6 -18 -15 -15
-21 4 -5 1 -8 -6 -7 -7 2 -23 -12 -36 -31 -28 -41 -31 -116 -8 -214 19 -82 35
-119 98 -231 62 -109 110 -157 282 -286 238 -178 374 -314 510 -510 97 -141
167 -274 216 -411 22 -63 45 -118 50 -124 12 -12 2 459 -12 570 -26 197 -92
376 -201 542 -101 154 -231 288 -458 473 -30 24 -98 86 -152 137 -118 114
-201 156 -236 121z m39 -17 c8 5 19 9 24 9 6 0 3 -5 -5 -10 -12 -8 -12 -10 5
-10 17 0 17 -2 5 -10 -8 -5 -16 -6 -18 -1 -2 5 -18 5 -37 1 -24 -5 -35 -4 -39
5 -7 19 3 25 28 15 13 -5 29 -4 37 1z m66 -26 c-4 -8 -12 -15 -19 -14 -10 0
-10 2 0 6 6 2 12 12 12 21 0 8 3 13 6 9 4 -3 4 -13 1 -22z m37 -20 c3 -8 11
-12 18 -10 9 4 14 -2 14 -14 0 -14 -4 -17 -12 -11 -6 6 -14 7 -17 3 -4 -3 -7
1 -7 10 0 10 -4 17 -10 17 -5 0 -10 5 -10 10 0 15 17 12 24 -5z"/>
<path d="M3611 2709 c-14 -6 -21 -15 -17 -24 3 -8 1 -17 -5 -20 -5 -4 -9 -3
-8 2 3 20 -2 25 -16 13 -8 -7 -12 -17 -8 -23 4 -6 1 -7 -6 -3 -8 5 -49 -28
-114 -91 -56 -54 -136 -125 -177 -158 -204 -161 -374 -362 -471 -555 -103
-205 -128 -331 -137 -692 -4 -147 -4 -268 -1 -268 4 0 17 26 29 57 78 203 118
281 233 453 135 203 309 379 578 587 85 65 149 134 195 208 79 129 95 160 120
237 33 98 35 159 8 213 -24 50 -77 83 -101 64 -12 -10 -15 -10 -9 -1 4 6 3 12
-2 12 -5 0 -13 -9 -18 -20 -7 -14 -13 -17 -24 -10 -13 8 -12 10 3 10 9 0 17 5
17 10 0 12 -37 12 -69 -1z m132 -32 c-3 -5 -10 -4 -15 1 -6 6 -7 16 -3 22 6 9
9 9 16 -1 4 -7 5 -17 2 -22z m57 -31 c0 -2 -8 -10 -17 -17 -16 -13 -17 -12 -4
4 13 16 21 21 21 13z m3 -36 c-3 -12 -8 -19 -11 -16 -5 6 5 36 12 36 2 0 2 -9
-1 -20z"/>
</g>
</svg>
